<svg version="1.1" id="Livello_1" xmlns="http://www.w3.org/2000/svg" xmlns:xlink="http://www.w3.org/1999/xlink" x="0px" y="0px" viewBox="0 0 12 12" style="enable-background:new 0 0 12 12;" xml:space="preserve"><style type="text/css">.st0{fill:#044882;}</style><g><g><path class="st0" d="M6,0C2.7,0,0,2.7,0,6s2.7,6,6,6s6-2.7,6-6S9.3,0,6,0z M9.8,8.2c0,0.2-0.1,0.3-0.3,0.3H2.6 c-0.2,0-0.3-0.1-0.3-0.3v-3L6,7.1l3.8-1.9V8.2z M9.8,4.5L6,6.4L2.2,4.5V3.8c0-0.2,0.1-0.3,0.3-0.3h6.9c0.2,0,0.3,0.1,0.3,0.3V4.5z"/></g></g></svg>
