<svg version="1.1" id="Livello_1" xmlns="http://www.w3.org/2000/svg" xmlns:xlink="http://www.w3.org/1999/xlink" x="0px" y="0px" viewBox="0 0 12 12" style="enable-background:new 0 0 12 12;" xml:space="preserve"><style type="text/css">.st0{fill:#044882;}</style><g><g><path class="st0" d="M6,0C2.7,0,0,2.7,0,6s2.7,6,6,6s6-2.7,6-6S9.3,0,6,0z M9.2,4.7L5.5,8.4C5.3,8.5,5.2,8.5,5,8.5 c-0.1,0-0.3,0-0.4-0.1L2.8,6.4c-0.3-0.3-0.3-0.7,0-0.8c0.3-0.3,0.7-0.3,0.8,0L5,7l3.3-3.3c0.3-0.3,0.7-0.3,0.8,0 C9.4,4,9.4,4.4,9.2,4.7z"/></g></g></svg>
