<svg version="1.1" id="Livello_1" xmlns="http://www.w3.org/2000/svg" xmlns:xlink="http://www.w3.org/1999/xlink" x="0px" y="0px" viewBox="0 0 12 12" style="enable-background:new 0 0 12 12;" xml:space="preserve"><style type="text/css">.st0{fill:#044882;}</style><g><path class="st0" d="M11.8057537,4.5516944l-0.0538654-0.2088284h-0.2221584H9.1149788H8.7938662l0.0386467,0.3088975 C8.8781071,5.016418,8.9304571,5.4996252,8.9304571,6.003458c0,0.5038943-0.05235,0.98704-0.0979443,1.3516946l-0.0386467,0.308959 h0.3211126h2.4147511h0.2221584l0.0538654-0.20889C11.9346409,6.9555507,12,6.4671412,12,6.003458 C12,5.5398364,11.9346409,5.0513659,11.8057537,4.5516944z"/><path class="st0" d="M10.9438972,8.497468H8.8363018H8.6154709L8.5607204,8.7048273 c-0.2264519,0.8571033-0.5495853,1.6653662-0.9606214,2.4023256l-0.3460565,0.6204882l0.6885128-0.2284746 c1.3642693-0.4527283,2.5174952-1.3715868,3.2473068-2.587285l0.248744-0.4144135H10.9438972z"/><path class="st0" d="M7.9536066,4.5807667L7.9196324,4.3428659H7.671773H4.328227H4.0841565L4.0470247,4.5766659 c-0.0780518,0.4917145-0.117583,0.9717388-0.117583,1.4267921c0,0.4538293,0.0383945,0.9203277,0.1174567,1.4261799 l0.0366898,0.2344737H4.328227H7.671773h0.2483649l0.0335951-0.238513C8.0115137,7.0147347,8.0706215,6.5244279,8.0706215,6.003458 C8.0706215,5.5859232,8.0345631,5.14715,7.9536066,4.5807667z"/><path class="st0" d="M7.3646164,8.497468H4.6354465H4.2578793l0.1040692,0.3517399 c0.2868223,0.9695358,0.7591763,1.9193029,1.4040532,2.8229208L6.0000315,12l0.2339668-0.3278713 c0.644877-0.9036179,1.1172938-1.853385,1.4041162-2.8229208L7.7421842,8.497468H7.3646164z"/><path class="st0" d="M4.0511928,0.5075052C2.6807349,0.9574784,1.5294037,1.8770714,0.8091903,3.0967486l-0.2436917,0.412761 h0.4906039h2.0861878h0.2157798l0.0581603-0.2014229C3.6813927,2.3903909,4.0007997,1.6026318,4.392765,0.899824 l0.3444777-0.6176115L4.0511928,0.5075052z"/><path class="st0" d="M4.392765,11.1071529c-0.3919654-0.7028074-0.7113724-1.4905663-0.9765346-2.4083233L3.3580701,8.497468 H3.1422904H1.0561025H0.563983L0.8095692,8.91078c0.7200239,1.2120876,1.8707869,2.1312523,3.2402976,2.5882635 l0.6898389,0.2301283L4.392765,11.1071529z"/><path class="st0" d="M3.0696058,6.003458c0-0.5038943,0.0523505-0.98704,0.097944-1.3516335L3.206197,4.3428659H2.8850849H0.47027 H0.2481753L0.1942461,4.5516944C0.0653591,5.0514269,0,5.5398364,0,6.003458s0.0653591,0.9520926,0.1942461,1.4517636 l0.0539292,0.20889H0.47027h2.4148149H3.206197l-0.0386472-0.308959C3.1219563,6.9905591,3.0696058,6.5073524,3.0696058,6.003458z"/><path class="st0" d="M7.6381145,3.1577079c-0.2891588-0.9773085-0.7615128-1.929401-1.4041162-2.8297758L6.0000315,0 L5.7660017,0.3279321c-0.6425405,0.9003748-1.1149573,1.852406-1.4040532,2.8297758L4.2578793,3.5095096h0.3775673h2.7291698 h0.3775678L7.6381145,3.1577079z"/><path class="st0" d="M11.1902418,3.0957081c-0.7245712-1.2142912-1.877923-2.1333947-3.2476864-2.5878968L7.2540426,0.2792747 L7.6000991,0.899824c0.411036,0.7368985,0.7341695,1.5451611,0.9606214,2.4023256l0.0547504,0.2073598h0.2208309h2.1075954 h0.4932566L11.1902418,3.0957081z"/></g></svg>
